<svg xmlns="http://www.w3.org/2000/svg" version="1.1" xmlns:xlink="http://www.w3.org/1999/xlink" width="512" height="512" x="0" y="0" viewBox="0 0 512 512" style="enable-background:new 0 0 512 512" xml:space="preserve" class=""><g><linearGradient id="a" x1="256" x2="256" y1="512" y2="2" gradientUnits="userSpaceOnUse"><stop offset="0" stop-color="#addcff"></stop><stop offset=".503" stop-color="#eaf6ff"></stop><stop offset="1" stop-color="#eaf6ff"></stop></linearGradient><linearGradient id="b" x1="256.001" x2="256.001" y1="452" y2="0" gradientUnits="userSpaceOnUse"><stop offset="0" stop-color="#5558ff"></stop><stop offset="1" stop-color="#00c0ff"></stop></linearGradient><path fill="url(#a)" d="M107.343 28.249c6.212-5.48 6.807-14.958 1.326-21.171C103.19.865 93.71.271 87.497 5.751 32.527 54.238 1 123.946 1 197c0 8.284 6.716 15 15 15s15-6.716 15-15c0-64.449 27.826-125.956 76.343-168.751zm317.16-22.498C418.289.271 408.81.866 403.331 7.078c-5.48 6.213-4.886 15.691 1.326 21.171C453.174 71.044 481 132.551 481 197c0 8.284 6.716 15 15 15s15-6.716 15-15c0-73.054-31.527-142.762-86.497-191.249zM129.138 49.01C85.835 86.179 61 140.119 61 197c0 8.284 6.716 15 15 15s15-6.716 15-15c0-48.12 21.022-93.763 57.677-125.226 6.286-5.396 7.008-14.866 1.612-21.152-5.396-6.287-14.867-7.008-21.151-1.612zm253.724 0c-6.286-5.396-15.756-4.674-21.151 1.612-5.396 6.286-4.674 15.756 1.612 21.152C399.978 103.237 421 148.88 421 197c0 8.284 6.716 15 15 15s15-6.716 15-15c0-56.881-24.835-110.821-68.138-147.99zM286 422h-60c-8.284 0-15 6.716-15 15v30c0 24.813 20.187 45 45 45s45-20.187 45-45v-30c0-8.284-6.716-15-15-15z" opacity="1" data-original="url(#a)" class=""></path><path fill="url(#b)" d="M446.604 426.392C410.747 390.533 391 342.857 391 292.147V197c0-69.369-52.594-126.676-120-134.162V15c0-8.284-6.716-15-15-15s-15 6.716-15 15v47.838C173.594 70.324 121 127.631 121 197v95.147c0 50.71-19.747 98.385-55.604 134.244C56.113 435.667 62.452 452 76 452h360c13.51 0 19.911-16.308 10.604-25.608z" opacity="1" data-original="url(#b)"></path></g></svg>