<svg width="152" height="42" viewBox="0 0 152 42" fill="none" xmlns="http://www.w3.org/2000/svg">
<g clip-path="url(#clip0_497_6593)">
<path d="M26.9668 36.9957C27.2795 37.3868 27.4845 37.8513 27.5619 38.3439C27.6393 38.8366 27.5866 39.3407 27.4088 39.8072C27.231 40.2737 26.9342 40.6868 26.5472 41.0063C26.1603 41.3258 25.6963 41.5408 25.2005 41.6304C23.7312 41.9044 22.2369 42.0255 20.7421 41.9916C9.19503 41.7396 -0.0868208 32.2602 0.00234608 20.8362C0.0309418 17.6543 0.789386 14.5203 2.22051 11.6705C3.65163 8.82068 5.7181 6.32938 8.26413 4.3844C10.8102 2.43942 13.7693 1.0915 16.9186 0.442254C20.0678 -0.206996 23.325 -0.140642 26.4446 0.636322C26.9317 0.75756 27.3804 0.997611 27.7496 1.33454C28.1188 1.67147 28.3967 2.09455 28.558 2.5651C28.7193 3.03566 28.7589 3.53869 28.673 4.02826C28.5872 4.51782 28.3787 4.9783 28.0666 5.36763C27.7152 5.81343 27.2413 6.14957 26.7017 6.3358C26.1622 6.52202 25.5798 6.55044 25.0243 6.41763C23.8217 6.12054 22.5867 5.97101 21.3472 5.97242C12.9634 5.97242 6.14 12.7575 6.14 21.0924C6.14 29.4273 12.9634 36.2124 21.3472 36.2124C22.273 36.2125 23.1969 36.1281 24.1071 35.9604C24.6339 35.8586 25.1788 35.9012 25.6829 36.0837C26.187 36.2662 26.631 36.5816 26.9668 36.9957Z" fill="white"/>
<path d="M42.4604 21C42.4637 24.1603 41.7442 27.2805 40.356 30.1269C38.9677 32.9733 36.9466 35.4722 34.4439 37.4367C34.144 37.6737 33.7999 37.8498 33.4311 37.955C33.0624 38.0602 32.6763 38.0925 32.2949 38.05C31.9136 38.0075 31.5444 37.891 31.2086 37.7072C30.8728 37.5234 30.577 37.2759 30.338 36.9789C29.8574 36.3811 29.636 35.6193 29.7224 34.8603C29.8088 34.1014 30.1958 33.4073 30.7987 32.9301C31.4409 32.4221 32.0409 31.8638 32.5926 31.2606C34.5309 29.1396 33.0172 25.7586 30.1575 25.6914C29.6544 25.6849 29.1557 25.7837 28.6939 25.9813C28.2322 26.179 27.8179 26.4709 27.4782 26.838C26.5204 27.8599 25.319 28.628 23.9838 29.0724C23.1333 29.3515 22.243 29.4933 21.347 29.4924C21.2068 29.4924 21.0667 29.4924 20.9224 29.4924C18.6701 29.4367 16.5325 28.4983 14.9797 26.8836C13.427 25.2689 12.5863 23.1102 12.6426 20.8824C12.6989 18.6546 13.6476 16.5402 15.28 15.0042C16.9124 13.4683 19.0947 12.6367 21.347 12.6924C21.6171 12.6919 21.8871 12.7052 22.1558 12.7323C23.119 12.8227 24.0583 13.0807 24.9306 13.4946C26.0038 14.0018 26.9566 14.7274 27.7266 15.624C28.0489 15.9893 28.4472 16.2813 28.8943 16.48C29.3414 16.6786 29.8266 16.7792 30.3167 16.7748C30.9617 16.7754 31.5933 16.5933 32.137 16.2501C32.6806 15.9068 33.1136 15.4168 33.3846 14.8379C33.6557 14.2591 33.7536 13.6155 33.6666 12.9834C33.5797 12.3513 33.3116 11.7569 32.8941 11.2707C32.4489 10.7527 31.9687 10.265 31.4568 9.81122C30.8908 9.31919 30.5371 8.63126 30.4683 7.88903C30.3996 7.1468 30.6212 6.40676 31.0874 5.82122L31.1638 5.72673C31.4126 5.41824 31.7224 5.16325 32.0743 4.9774C32.4263 4.79155 32.8128 4.67875 33.2104 4.64591C33.608 4.61308 34.0081 4.6609 34.3863 4.78644C34.7645 4.91199 35.1128 5.11262 35.4099 5.37602C37.6308 7.34256 39.4069 9.75084 40.6219 12.4433C41.8369 15.1357 42.4634 18.0515 42.4604 21Z" fill="white"/>
<path d="M59.6781 32.1972C58.638 32.1958 57.6038 32.0437 56.6082 31.7457C55.5624 31.434 54.5656 30.9795 53.6466 30.3954C52.6889 29.7877 51.8359 29.0319 51.1202 28.1568C50.3611 27.2313 49.7687 26.1835 49.3687 25.0593C48.928 23.7967 48.7125 22.4679 48.7318 21.1323C48.7131 19.8324 48.9288 18.5395 49.3687 17.3145C49.7648 16.2216 50.3527 15.2065 51.1054 14.3157C51.8236 13.4688 52.677 12.7438 53.6318 12.1695C55.4744 11.0562 57.5811 10.4427 59.7397 10.3908C60.652 10.375 61.5616 10.4947 62.4381 10.7457C63.0827 10.934 63.7105 11.1749 64.3148 11.466C64.6392 11.6222 64.9546 11.796 65.2595 11.9868C65.5955 12.1953 65.9168 12.4262 66.2213 12.6777C66.3694 12.7938 66.4903 12.9403 66.5757 13.107C66.6611 13.2738 66.709 13.4569 66.7159 13.6437C66.7185 13.8598 66.6766 14.0741 66.5928 14.2737C66.5007 14.4847 66.3862 14.6853 66.251 14.8722C66.0599 15.1802 65.8131 15.4507 65.5228 15.6702C65.3119 15.8252 65.0573 15.9112 64.7946 15.9159C64.5687 15.9163 64.3476 15.8521 64.1577 15.7311C63.9603 15.6093 63.7182 15.456 63.4274 15.2712C63.2046 15.1229 62.9719 14.9896 62.731 14.8722C62.3273 14.6772 61.9066 14.5183 61.4742 14.3976C60.8482 14.23 60.2012 14.1522 59.5529 14.1666C58.6725 14.1695 57.8 14.3303 56.9776 14.6412C56.1371 14.9558 55.3643 15.4246 54.6996 16.023C54.0142 16.644 53.47 17.402 53.1031 18.2469C52.6938 19.2063 52.4927 20.2402 52.5129 21.2814C52.4937 22.3286 52.6947 23.3684 53.1031 24.3348C53.4675 25.1852 54.0119 25.9485 54.6996 26.5734C55.3617 27.171 56.1356 27.6347 56.9776 27.9384C57.8034 28.2366 58.6759 28.388 59.555 28.3857C60.1708 28.3918 60.7849 28.3212 61.3829 28.1757C61.8369 28.0676 62.2749 27.9025 62.6864 27.6843L63.4932 27.2391C63.7211 27.0991 63.9376 26.9668 64.1428 26.8422C64.3385 26.7218 64.5642 26.6578 64.7946 26.6574C65.0573 26.6621 65.3119 26.748 65.5228 26.9031C65.8129 27.1219 66.0597 27.3917 66.251 27.699C66.3841 27.9034 66.4985 28.1191 66.5928 28.3437C66.6748 28.5483 66.7068 28.7692 66.6862 28.9884C66.6765 29.1688 66.6285 29.3452 66.5455 29.5062C66.4625 29.6672 66.3462 29.8091 66.2043 29.9229C65.913 30.1741 65.5964 30.395 65.2595 30.5823C65.094 30.6859 64.7734 30.87 64.2978 31.1346C63.7085 31.4457 63.0843 31.6875 62.4381 31.8549C61.5383 32.0938 60.6096 32.209 59.6781 32.1972Z" fill="white"/>
<path d="M82.1885 31.983C81.5686 31.983 81.1192 31.8703 80.8404 31.6449C80.7024 31.5331 80.5906 31.3929 80.5129 31.2341C80.4352 31.0752 80.3934 30.9016 80.3903 30.7251L80.6026 29.7129C80.3662 30.0592 80.085 30.3733 79.7662 30.6474C79.3108 31.0458 78.7922 31.3672 78.2312 31.5987C77.499 31.8954 76.7124 32.0384 75.9214 32.0187C74.9734 32.0241 74.0361 31.8196 73.1784 31.4202C72.3171 31.0201 71.5427 30.458 70.8983 29.7654C70.2357 29.0586 69.7103 28.2371 69.3485 27.342C68.9723 26.4105 68.7827 25.4156 68.7901 24.4125C68.7849 23.4396 68.9746 22.4753 69.3485 21.5754C70.0869 19.8141 71.4558 18.3839 73.1933 17.5581C74.0455 17.1579 74.978 16.9534 75.9214 16.9596C76.644 16.9433 77.3635 17.0578 78.0444 17.2977C78.5874 17.4968 79.0949 17.7804 79.5475 18.1377C79.9319 18.4438 80.2757 18.7966 80.5708 19.1877L80.4222 18.3057C80.3993 18.1147 80.4242 17.921 80.4945 17.7416C80.5648 17.5622 80.6785 17.4026 80.8255 17.2767C81.1086 17.0443 81.5735 16.9274 82.2204 16.926C82.778 16.926 83.1863 17.0128 83.4453 17.1864C83.5702 17.2684 83.677 17.3745 83.7594 17.4982C83.8419 17.622 83.8982 17.7609 83.9251 17.9067C83.9896 18.2403 84.0209 18.5793 84.0186 18.9189V30.114C84.021 30.4328 83.9897 30.7509 83.9251 31.0632C83.8964 31.2025 83.8389 31.3344 83.7564 31.4507C83.6738 31.5671 83.568 31.6653 83.4453 31.7394C83.1863 31.9018 82.7674 31.983 82.1885 31.983ZM76.4946 28.4235C77.1574 28.4295 77.8083 28.2489 78.3713 27.9027C78.9403 27.5537 79.4055 27.0617 79.7194 26.4768C80.0544 25.8593 80.2253 25.1678 80.2162 24.4671C80.2307 23.75 80.0542 23.0417 79.7046 22.4133C79.3746 21.8336 78.8994 21.3476 78.3246 21.0021C77.7552 20.6581 77.1002 20.4778 76.433 20.4813C75.7291 20.4683 75.0349 20.6457 74.4255 20.9943C73.816 21.3429 73.3143 21.8496 72.9746 22.4595C72.6287 23.084 72.4524 23.7866 72.463 24.4986C72.4532 25.1885 72.6308 25.8684 72.9774 26.4672C73.324 27.066 73.8267 27.5618 74.4331 27.9027C75.0608 28.2557 75.7727 28.4355 76.4946 28.4235Z" fill="white"/>
<path d="M88.5491 32.0439C87.9716 32.0439 87.547 31.9557 87.2753 31.7835C87.1492 31.708 87.0401 31.6077 86.9547 31.4889C86.8692 31.3701 86.8093 31.2352 86.7785 31.0926C86.7149 30.7901 86.6835 30.4818 86.6851 30.1728V11.8923C86.6819 11.5728 86.7183 11.254 86.7933 10.9431C86.8284 10.8022 86.8918 10.6698 86.9797 10.5536C87.0676 10.4374 87.1782 10.3399 87.305 10.2669C87.5746 10.1031 87.9971 10.0212 88.5788 10.0212C89.1605 10.0212 89.5766 10.1094 89.8356 10.2837C90.0804 10.4389 90.2571 10.6796 90.3303 10.9578C90.4072 11.2741 90.4436 11.5986 90.4386 11.9238V18.8244C90.9021 18.3135 91.4402 17.874 92.0351 17.5203C92.7538 17.1047 93.5765 16.898 94.4086 16.9239C95.5986 16.9047 96.7701 17.2177 97.7885 17.8269C98.7891 18.4417 99.6033 19.3123 100.145 20.3469C100.744 21.5089 101.042 22.7998 101.013 24.1038V30.2064C101.015 30.5106 100.984 30.8141 100.92 31.1115C100.89 31.2483 100.831 31.3775 100.748 31.4909C100.666 31.6044 100.56 31.6997 100.438 31.7709C100.182 31.9347 99.753 32.0166 99.1514 32.0166C98.7235 32.0448 98.2956 31.96 97.9116 31.7709C97.786 31.7006 97.6759 31.606 97.588 31.4927C97.5001 31.3794 97.4362 31.2498 97.3999 31.1115C97.3229 30.7953 97.2866 30.4708 97.2917 30.1455V24.0702C97.3101 23.4209 97.1832 22.7755 96.9202 22.1802C96.6839 21.6725 96.3003 21.2456 95.8183 20.9538C95.2784 20.6435 94.6612 20.4893 94.0371 20.5086C93.1436 20.48 92.271 20.7792 91.5871 21.3486C90.9341 21.8942 90.5221 22.6702 90.4386 23.5116V30.1959C90.4406 30.5065 90.4042 30.8161 90.3303 31.1178C90.2615 31.3982 90.0838 31.6404 89.8356 31.7919C89.5752 31.9599 89.1464 32.0439 88.5491 32.0439Z" fill="white"/>
<path d="M116.486 31.9831C115.866 31.9831 115.424 31.8697 115.138 31.645C115 31.5331 114.888 31.3929 114.81 31.2341C114.733 31.0753 114.691 30.9016 114.688 30.7252L114.9 29.713C114.662 30.0587 114.38 30.3727 114.061 30.6475C113.606 31.0458 113.088 31.3672 112.526 31.5988C111.794 31.8956 111.008 32.0386 110.217 32.0188C109.274 32.0192 108.343 31.8126 107.491 31.414C106.63 31.0133 105.855 30.4513 105.211 29.7592C104.549 29.0518 104.023 28.2304 103.661 27.3358C103.285 26.4042 103.095 25.4093 103.102 24.4063C103.097 23.4333 103.287 22.4691 103.661 21.5692C104.397 19.8114 105.76 18.3819 107.491 17.5519C108.343 17.1517 109.275 16.9471 110.219 16.9534C110.941 16.9368 111.661 17.0514 112.342 17.2915C112.885 17.4905 113.392 17.7741 113.845 18.1315C114.229 18.4375 114.573 18.7903 114.868 19.1815L114.713 18.2932C114.69 18.1021 114.715 17.9084 114.786 17.729C114.856 17.5497 114.97 17.3901 115.117 17.2642C115.4 17.0318 115.865 16.9149 116.511 16.9135C117.069 16.9135 117.477 17.0003 117.736 17.1739C117.861 17.2556 117.968 17.3615 118.051 17.4854C118.133 17.6092 118.19 17.7482 118.216 17.8942C118.282 18.2276 118.313 18.5667 118.31 18.9064V30.1015C118.313 30.4203 118.282 30.7385 118.216 31.0507C118.188 31.1901 118.131 31.3222 118.048 31.4386C117.965 31.555 117.859 31.6531 117.736 31.7269C117.482 31.8977 117.065 31.9831 116.486 31.9831ZM110.781 28.4236C111.444 28.4295 112.095 28.2489 112.658 27.9028C113.227 27.5537 113.692 27.0617 114.006 26.4769C114.341 25.8594 114.512 25.1678 114.503 24.4672C114.517 23.75 114.341 23.0417 113.991 22.4134C113.661 21.8336 113.186 21.3476 112.611 21.0022C112.042 20.6582 111.387 20.4778 110.72 20.4813C110.016 20.4683 109.322 20.6457 108.712 20.9943C108.103 21.343 107.601 21.8496 107.261 22.4596C106.915 23.0841 106.739 23.7866 106.75 24.4987C106.74 25.1886 106.918 25.8684 107.264 26.4672C107.611 27.066 108.114 27.5618 108.72 27.9028C109.348 28.2557 110.059 28.4356 110.781 28.4236Z" fill="white"/>
<path d="M127.689 30.5718L120.496 19.6833C120.144 19.1317 120.002 18.6718 120.072 18.3036C120.144 17.9361 120.469 17.577 121.048 17.2305C121.685 16.842 122.19 16.6887 122.551 16.7706C122.912 16.8525 123.28 17.178 123.653 17.7513L129.332 26.4957L127.689 30.5718ZM124.806 38.1171C124.144 37.8105 123.757 37.4871 123.643 37.1196C123.528 36.7521 123.617 36.2796 123.906 35.6937L131.905 17.9655C132.196 17.3124 132.51 16.9155 132.852 16.7853C133.194 16.6551 133.701 16.7286 134.387 17.0142C135.026 17.3026 135.403 17.6246 135.519 17.9802C135.631 18.3393 135.555 18.8034 135.285 19.3767L127.235 37.2057C126.964 37.8609 126.665 38.2494 126.337 38.3712C126.008 38.493 125.498 38.4083 124.806 38.1171Z" fill="white"/>
<path d="M150.085 31.983C149.465 31.983 149.023 31.8696 148.737 31.6449C148.599 31.533 148.487 31.3929 148.409 31.234C148.332 31.0752 148.29 30.9015 148.287 30.7251L148.499 29.7129C148.262 30.0591 147.981 30.3733 147.662 30.6474C147.208 31.0455 146.69 31.3669 146.13 31.5987C145.397 31.8953 144.611 32.0384 143.82 32.0187C142.872 32.0236 141.935 31.8191 141.077 31.4202C140.216 31.02 139.441 30.458 138.797 29.7654C138.134 29.0585 137.609 28.237 137.247 27.342C136.871 26.4105 136.681 25.4155 136.689 24.4125C136.683 23.4396 136.873 22.4753 137.247 21.5754C137.985 19.8141 139.354 18.3838 141.092 17.5581C141.944 17.1579 142.876 16.9533 143.82 16.9596C144.542 16.9432 145.262 17.0578 145.943 17.2977C146.486 17.4967 146.993 17.7803 147.446 18.1377C147.83 18.4437 148.174 18.7965 148.469 19.1877L148.314 18.2994C148.291 18.1083 148.316 17.9146 148.387 17.7353C148.457 17.5559 148.571 17.3963 148.718 17.2704C149.001 17.038 149.466 16.9211 150.112 16.9197C150.67 16.9197 151.078 17.0065 151.337 17.1801C151.462 17.2618 151.569 17.3678 151.652 17.4916C151.734 17.6154 151.791 17.7545 151.817 17.9004C151.882 18.234 151.913 18.573 151.911 18.9126V30.1077C151.913 30.4264 151.882 30.7446 151.817 31.0569C151.789 31.1963 151.732 31.3284 151.649 31.4448C151.567 31.5612 151.46 31.6594 151.337 31.7331C151.081 31.8997 150.664 31.983 150.085 31.983ZM144.38 28.4235C145.043 28.4295 145.694 28.2488 146.257 27.9027C146.826 27.5537 147.291 27.0616 147.605 26.4768C147.94 25.8593 148.111 25.1678 148.102 24.4671C148.116 23.7499 147.94 23.0417 147.59 22.4133C147.26 21.8335 146.785 21.3476 146.21 21.0021C145.641 20.6581 144.986 20.4777 144.319 20.4813C143.615 20.4683 142.921 20.6456 142.311 20.9943C141.702 21.3429 141.2 21.8495 140.86 22.4595C140.514 23.084 140.338 23.7866 140.349 24.4986C140.339 25.1885 140.517 25.8683 140.863 26.4671C141.21 27.0659 141.712 27.5617 142.319 27.9027C142.946 28.2556 143.658 28.4355 144.38 28.4235Z" fill="white"/>
</g>
<defs>
<clipPath id="clip0_497_6593">
<rect width="151.915" height="42" fill="white"/>
</clipPath>
</defs>
</svg>
